<?xml version="1.0" encoding="utf-8"?>
<!-- Generator: Adobe Illustrator 19.2.0, SVG Export Plug-In . SVG Version: 6.00 Build 0)  -->
<svg version="1.1" id="圖層_1" xmlns="http://www.w3.org/2000/svg" xmlns:xlink="http://www.w3.org/1999/xlink" x="0px" y="0px"
     viewBox="0 0 271.9 50.5" style="enable-background:new 0 0 271.9 50.5;" xml:space="preserve">
<style type="text/css">
	.st0{fill:#DF2513;}
</style>
    <g>
	<path class="st0" d="M30.2,0C16.3,0,3,11.3,0.4,25.1C-2.1,39,7.1,50.3,20.9,50.3c13.9,0,27.2-11.3,29.7-25.1C53.2,11.3,44,0,30.2,0
		z M37.9,29.3l-3.6,12.6H25h-6.2C10.4,41.7,5.5,34.6,8,26c1.4-5,5.8-10,10.2-12.9c-2.2,2.5-5.4,5.6-6.4,9.2
		c-2.6,9.2,3.9,13.4,8.6,13.6h7.7l1.9-6.6h-5.6l1.6-5.6h7.9h5.6L37.9,29.3z M41.5,16.4H28.9c-2.8,0.1-7.3,2.2-8.8,7.4
		c-1.9,6.8,2.7,9.6,2.7,9.6c-5.7-0.5-10.2-4.8-8.2-11.9c2-7.1,8.4-13.1,17.1-13.3l12,0.2L41.5,16.4z"/>
        <g>
		<g>
			<path class="st0" d="M246.1,20.1l7.2-0.1l-3.8-8.7l4.3-8.7H247l-4.4,8.9C242.6,11.6,246.2,20.4,246.1,20.1z"/>
            <path class="st0" d="M255.1,20.1l7.2-0.1l-3.8-8.7l4.3-8.7H256l-4.4,8.9C251.6,11.6,255.2,20.4,255.1,20.1z"/>
            <path class="st0" d="M271.9,2.7H265l-4.4,8.9c0,0,3.6,8.8,3.5,8.6l7.2-0.1l-3.8-8.7L271.9,2.7z"/>
            <path class="st0" d="M232.1,9.2l3.1,0v8.5h-3.2V3.5h-6.4V49h6.4V34h3.2v8.5c0,0.6,0.1,1.4-0.4,1.4c-0.7,0-2.1,0-2.1,0l1.5,4.7
				l3.3,0.1c2.7,0,4-1.5,4-4.5c0-0.1,0-40.6,0-40.6l-7.2,0L232.1,9.2z M232.1,29.4v-7.1h3.2v7.1H232.1z"/>
            <path class="st0" d="M260.9,21.4h-5.6c-0.5,0.6-0.8,0.9-1,1.1h-11.1v4.4h17.5c-1,1.5-2.2,3-3.3,4.1c-2.3-1.7-3.9-3.3-5.2-4
				l-2.8,3.1v-1.6h-6.1v20.1h27.4V28.6h-6.1v8.5c-0.7-0.8-1.8-1.9-3.3-3.2c0,0,0.6-0.7,1.7-2c0.6-0.7,1.1-1.4,1.5-2.2l-3.8-2.8h10.4
				v-4.4h-11.1L260.9,21.4z M249.4,31.4c1.4,1,2.8,2.1,4.2,3.5c-1.3,1.1-2.7,2-4.2,2.7V31.4z M261.9,42l2.8-2.5v4h-15.2v-3.8
				l2.1,2.7c1.8-0.9,3.8-2.3,6-4.2l3.2,3L261.9,42z"/>
		</g>
            <g>
			<path class="st0" d="M150.2,41.6V27.1h6.6v-5.3h-22.4v-3.5c7.6-0.1,14.1-1,21.6-3.1l-1.7-5.6c-6.9,2.3-16.6,3.4-26.7,3.4
				c-0.3,0-0.5,0-0.6,0v8.9c0,6.9-0.4,15.1-3.5,18.2l7.3,1.6c3-4,3.4-8.5,3.6-14.8h8.1v14.8H150.2z"/>
                <polygon class="st0" points="158.5,3.3 125.5,3.3 122.2,9 158.5,9 			"/>
                <polygon class="st0" points="122.2,43.1 122.2,3.3 114.7,3.3 114.7,48.4 159.5,48.4 159.5,43.1 			"/>
		</g>
            <g>
			<polygon class="st0" points="72.8,42.8 72.8,35.3 101,35.3 101,16.7 76.3,16.7 73,21.9 93.3,21.9 93.3,30.1 72.8,30.1 72.8,9.7
				104.1,9.7 104.1,4.5 60.2,4.5 60.2,9.8 65.1,9.8 65.1,42.7 59.9,42.7 59.9,48.2 105,48.2 105,42.8 			"/>
		</g>
            <g>
			<path class="st0" d="M179.9,48.3l1.8-4.7h-4.7v-3.2h7.4l-2.9,8.3h31l1.9-4.6L191,44l1.3-3.7h20.1V27.2h-42.1V44
				c0.3,3.4,2.2,4.4,4,4.3L179.9,48.3z M195.6,31.8h9.9v3.9h-11.6L195.6,31.8z M186.1,35.7H177v-3.9l10.8,0L186.1,35.7z"/>
                <polygon class="st0" points="195.6,10.6 195.6,8.1 212.4,8.1 212.4,3.5 170.6,3.5 170.6,8.1 188,8.1 188,10.7 168.3,10.7
				168.3,23.4 174.9,23.4 174.9,15.4 188,15.4 188,21.4 183.4,21.4 183.4,17.8 176.8,17.8 176.8,25.4 206.5,25.4 206.5,17.6
				199.9,17.6 199.9,21.4 195.6,21.4 195.6,15.4 208.3,15.4 208.3,23 214.9,23 214.9,10.6 			"/>
		</g>
	</g>
</g>
</svg>
